<svg width="251" height="165" viewBox="0 0 251 165" fill="none" xmlns="http://www.w3.org/2000/svg">
<path d="M250.25 0V164.287H0V0H250.25Z" fill="#C4C4C4"/>
<path d="M198.573 21.1287C193.964 20.2479 189.159 20.8949 185.032 22.952C180.905 25.0091 177.731 28.3395 176.087 32.3373C174.443 36.3351 174.439 40.7345 176.075 44.735C177.711 48.7355 180.878 52.0711 185.001 54.135C189.124 56.1988 193.928 56.8537 198.539 55.9805C203.15 55.1072 207.261 52.7639 210.125 49.3768C212.989 45.9898 214.415 41.7842 214.143 37.5253C213.872 33.2664 211.921 29.2373 208.646 26.1711C205.915 23.6229 202.409 21.8677 198.573 21.1287Z" fill="white"/>
<path d="M143.867 114.684C127.637 94.2449 111.4 73.8082 95.1577 53.3742L22.9248 144.356H120.344C128.185 134.471 136.032 124.588 143.885 114.709" fill="white"/>
<path d="M179.134 81.5C162.493 102.447 145.857 123.396 129.227 144.348H229.05C212.421 123.396 195.782 102.447 179.134 81.5Z" fill="white"/>
</svg>
