<svg width="20" height="19" viewBox="0 0 20 19" fill="none" xmlns="http://www.w3.org/2000/svg">
<path d="M11.1914 7.81152C10.7402 7.81152 10.3906 8.14365 10.3906 8.55371C10.3906 8.96377 10.7402 9.2959 11.1914 9.2959C11.6035 9.2959 11.9531 8.96377 11.9531 8.55371C11.9531 8.14365 11.6035 7.81152 11.1914 7.81152ZM5.72266 7.81152C5.27148 7.81152 4.92188 8.14365 4.92188 8.55371C4.92188 8.96377 5.27148 9.2959 5.72266 9.2959C6.13477 9.2959 6.48438 8.96377 6.48438 8.55371C6.48438 8.14365 6.13477 7.81152 5.72266 7.81152Z" fill="black"/>
<path d="M17.4609 6.40134C16.5215 5.17673 15.209 4.35847 13.7695 3.98923V3.99109C13.4355 3.63855 13.0586 3.31384 12.6367 3.02439C9.43944 0.816382 4.95116 1.48992 2.61717 4.52732C0.736312 6.99509 0.81639 10.3145 2.73436 12.6728L2.74998 15.1332C2.74998 15.1926 2.75975 15.2519 2.77928 15.3076C2.8828 15.6212 3.23436 15.7937 3.56248 15.6954L6.03514 14.9551C6.68944 15.1759 7.36522 15.302 8.03709 15.3373L8.02733 15.3447C9.76756 16.5489 12.0488 16.9107 14.1406 16.2539L16.623 17.022C16.6855 17.0406 16.75 17.0517 16.8164 17.0517C17.1621 17.0517 17.4414 16.7864 17.4414 16.458V13.9717C19.1621 11.7525 19.207 8.68542 17.4609 6.40134ZM6.30858 13.6377L6.0742 13.5449L4.14061 14.1201L4.12108 12.1904L3.96483 12.0234C2.31248 10.1086 2.20311 7.34949 3.74998 5.32517C5.6328 2.87224 9.24217 2.33044 11.8164 4.10056C14.3984 5.88367 14.9707 9.30701 13.1055 11.7451C11.541 13.7843 8.74022 14.5376 6.30858 13.6377ZM16.1719 13.3222L16.0156 13.5078L16.0351 15.4375L14.1211 14.8252L13.8867 14.9179C12.793 15.3039 11.6269 15.3354 10.5469 15.0478L10.543 15.046C11.9863 14.6248 13.2949 13.7713 14.2383 12.5429C15.7305 10.5891 15.9726 8.13435 15.1055 6.04138L15.1172 6.0488C15.5664 6.35496 15.9785 6.73718 16.3281 7.19919C17.7461 9.04724 17.666 11.5633 16.1719 13.3222Z" fill="black"/>
<path d="M8.45703 7.81152C8.00586 7.81152 7.65625 8.14365 7.65625 8.55371C7.65625 8.96377 8.00586 9.2959 8.45703 9.2959C8.86914 9.2959 9.21875 8.96377 9.21875 8.55371C9.21875 8.14365 8.86914 7.81152 8.45703 7.81152Z" fill="black"/>
</svg>
