<svg width="25" height="15" viewBox="0 0 25 15" fill="none" xmlns="http://www.w3.org/2000/svg">
<path d="M12.3522 0.000496392C8.70767 -0.0300505 2.79556 1.33378 0.113919 8.38651C0.113919 8.38651 -0.206393 9.47542 0.2272 9.9444C0.715482 10.4691 1.45767 10.2642 1.45767 10.2642C1.45767 10.2642 5.18423 14.9146 12.3463 14.8696C19.5104 14.8247 22.694 10.5877 22.694 10.5877C22.694 10.5877 23.4479 11.0818 24.0983 10.7817C24.6256 10.5392 24.862 10.0846 24.8698 9.28495C24.8913 7.26526 20.9303 0.0705745 12.3522 0.000496392Z" fill="#EEEEEE"/>
<path d="M22.53 7.80672C22.53 10.723 17.8953 13.0841 12.1628 13.0841C6.44214 13.0841 1.79565 10.723 1.79565 7.80672C1.79565 4.89039 6.44214 2.5293 12.1628 2.5293C17.8953 2.5293 22.53 4.89039 22.53 7.80672Z" fill="white"/>
<path d="M23.6784 7.00746C21.5983 3.08488 17.4948 0.747145 13.28 0.427301C11.4694 0.294333 9.7487 0.490192 8.17253 0.984333C5.28191 1.89715 2.88347 3.81801 1.31902 6.55465C0.881517 7.31472 0.334642 8.1898 0.295579 9.07746C0.278001 9.48894 0.424486 9.83574 0.887376 9.92738C1.62175 10.0747 2.01824 9.48535 2.48503 9.07387C2.77214 8.81871 3.09245 8.45394 3.4323 8.26527C3.66472 8.1359 4.2155 8.04785 4.46355 8.18262C5.17839 8.57973 5.3366 9.67582 5.63347 10.3425C7.34441 14.1716 13.3444 14.61 16.3678 11.8824C17.1237 11.205 17.8776 10.0927 18.1335 9.13676C18.2546 8.68394 18.1198 7.12785 18.8717 7.01824C19.3776 6.94816 19.9264 7.45847 20.2917 7.71183C21.151 8.31558 22.4323 10.5545 23.655 10.4664C23.9831 10.4449 24.3971 9.97949 24.4655 9.71355C24.6921 8.83488 23.8796 7.3884 23.6784 7.00746Z" fill="#2F2F2F"/>
<path d="M11.1354 6.51796C10.6589 7.70928 8.66667 8.19624 7.74089 7.21694C7.01433 6.45147 7.28386 5.41288 8.05144 4.78217C9.43816 3.64296 11.7526 4.97803 11.1354 6.51796Z" fill="white"/>
</svg>
