<svg width="30" height="20" viewBox="0 0 30 20" fill="none" xmlns="http://www.w3.org/2000/svg">
<path d="M14.9002 0.000667644C10.5039 -0.0404177 3.37222 1.79392 0.137418 11.2798C0.137418 11.2798 -0.248968 12.7444 0.274067 13.3752C0.86307 14.0809 1.75836 13.8053 1.75836 13.8053C1.75836 13.8053 6.25363 20.06 14.8931 19.9996C23.535 19.9391 27.3753 14.2404 27.3753 14.2404C27.3753 14.2404 28.2847 14.905 29.0693 14.5014C29.7054 14.1751 29.9905 13.5637 29.9999 12.4882C30.0258 9.77173 25.2478 0.0949223 14.9002 0.000667644V0.000667644Z" fill="#EEEEEE"/>
<path d="M27.1775 10.5C27.1775 14.4224 21.5867 17.5981 14.6718 17.5981C7.77103 17.5981 2.16608 14.4224 2.16608 10.5C2.16608 6.57751 7.77103 3.40186 14.6718 3.40186C21.5867 3.40186 27.1775 6.57751 27.1775 10.5Z" fill="white"/>
<path d="M28.5627 9.42487C26.0536 4.14903 21.1036 1.00479 16.0193 0.574603C13.8353 0.395761 11.7596 0.659191 9.85834 1.32381C6.37144 2.55153 3.47825 5.13508 1.59109 8.81584C1.06334 9.83814 0.403655 11.0151 0.356535 12.209C0.335331 12.7625 0.512032 13.2289 1.07041 13.3522C1.95627 13.5503 2.43454 12.7576 2.99763 12.2042C3.34396 11.861 3.73035 11.3704 4.14029 11.1166C4.42066 10.9426 5.08505 10.8242 5.38427 11.0055C6.24657 11.5396 6.43741 13.0138 6.79552 13.9104C8.85939 19.0606 16.0971 19.6503 19.7442 15.9816C20.6559 15.0705 21.5654 13.5745 21.874 12.2888C22.0201 11.6797 21.8575 9.5868 22.7646 9.43937C23.3748 9.34512 24.0368 10.0315 24.4774 10.3723C25.514 11.1843 27.0596 14.1956 28.5345 14.0772C28.9303 14.0482 29.4297 13.4222 29.5122 13.0646C29.7855 11.8827 28.8054 9.93723 28.5627 9.42487V9.42487Z" fill="#2F2F2F"/>
<path d="M13.4324 8.76669C12.8576 10.369 10.4544 11.024 9.33768 9.70682C8.46124 8.67727 8.78637 7.28036 9.71229 6.43207C11.3851 4.89983 14.1769 6.6955 13.4324 8.76669" fill="white"/>
</svg>
