<svg width="25" height="25" viewBox="0 0 25 25" fill="none" xmlns="http://www.w3.org/2000/svg">
<path d="M22.8861 15.7046C23.0415 15.9738 23.0836 16.2936 23.0031 16.5939C22.9227 16.8941 22.7263 17.1501 22.4571 17.3055C22.1879 17.4609 21.868 17.503 21.5678 17.4225C21.2676 17.3421 21.0116 17.1456 20.8562 16.8765L19.2666 14.1232C18.3706 14.682 17.4068 15.124 16.3988 15.4387L16.9056 18.3128C16.9341 18.4651 16.9321 18.6215 16.8998 18.773C16.8674 18.9245 16.8053 19.068 16.7171 19.1954C16.629 19.3228 16.5164 19.4314 16.3859 19.5149C16.2555 19.5985 16.1098 19.6554 15.9572 19.6823C15.8047 19.7092 15.6483 19.7056 15.4971 19.6717C15.346 19.6378 15.2031 19.5742 15.0766 19.4847C14.9502 19.3952 14.8427 19.2815 14.7605 19.1502C14.6783 19.0189 14.6229 18.8726 14.5976 18.7198L14.1041 15.9216C13.0355 16.0475 11.9557 16.0471 10.8872 15.9206L10.3939 18.7186C10.3386 19.0234 10.1648 19.2939 9.91059 19.471C9.65638 19.648 9.34242 19.7172 9.03734 19.6634C8.73227 19.6096 8.46091 19.4372 8.2826 19.1839C8.10428 18.9306 8.03352 18.6169 8.08578 18.3116L8.59272 15.4361C7.58611 15.1211 6.62379 14.679 5.72905 14.1205L4.12905 16.8918C3.97365 17.1609 3.71769 17.3574 3.41747 17.4378C3.11726 17.5182 2.79738 17.4761 2.52822 17.3207C2.25905 17.1653 2.06264 16.9094 1.9822 16.6092C1.90175 16.3089 1.94386 15.9891 2.09926 15.7199L3.84291 12.6998C3.25506 12.1699 2.71019 11.5943 2.21342 10.9782C2.02114 10.7362 1.93229 10.4279 1.96621 10.1207C2.00014 9.81341 2.1541 9.532 2.39456 9.33773C2.63502 9.14347 2.9425 9.05208 3.25003 9.08347C3.55756 9.11487 3.84023 9.26651 4.03647 9.50536C5.57221 11.4062 8.28696 13.6721 12.5 13.6721C16.7129 13.6721 19.4278 11.4062 20.9635 9.50546C21.0597 9.38432 21.179 9.28344 21.3144 9.20863C21.4498 9.13382 21.5987 9.08656 21.7525 9.06958C21.9063 9.0526 22.0619 9.06624 22.2103 9.1097C22.3588 9.15317 22.4972 9.2256 22.6176 9.32282C22.7379 9.42004 22.8378 9.54013 22.9115 9.67616C22.9852 9.81218 23.0312 9.96145 23.0469 10.1154C23.0626 10.2693 23.0477 10.4248 23.003 10.5729C22.9583 10.721 22.8848 10.8588 22.7866 10.9783C22.2887 11.5957 21.7426 12.1725 21.1533 12.7033L22.8861 15.7046Z" fill="black"/>
</svg>
