<svg width="25" height="20" viewBox="0 0 25 20" fill="none" xmlns="http://www.w3.org/2000/svg">
<path d="M22.8861 12.5634C23.0415 12.7788 23.0836 13.0347 23.0031 13.2748C22.9227 13.515 22.7263 13.7198 22.4571 13.8441C22.1879 13.9684 21.868 14.0021 21.5678 13.9378C21.2676 13.8734 21.0116 13.7163 20.8562 13.5009L19.2666 11.2983C18.3706 11.7454 17.4068 12.099 16.3988 12.3507L16.9056 14.65C16.9341 14.7718 16.9321 14.8969 16.8998 15.0181C16.8674 15.1393 16.8053 15.2542 16.7171 15.3561C16.629 15.458 16.5164 15.5449 16.3859 15.6117C16.2555 15.6786 16.1098 15.7241 15.9572 15.7456C15.8047 15.7671 15.6483 15.7642 15.4971 15.7371C15.346 15.71 15.2031 15.6591 15.0766 15.5875C14.9502 15.5159 14.8427 15.425 14.7605 15.3199C14.6783 15.2149 14.6229 15.0979 14.5976 14.9756L14.1041 12.737C13.0355 12.8377 11.9557 12.8375 10.8872 12.7362L10.3939 14.9747C10.3386 15.2185 10.1648 15.4349 9.91059 15.5765C9.65638 15.7182 9.34242 15.7735 9.03734 15.7305C8.73227 15.6874 8.46091 15.5495 8.2826 15.3469C8.10428 15.1442 8.03352 14.8933 8.08579 14.649L8.59272 12.3486C7.58611 12.0966 6.62379 11.743 5.72905 11.2962L4.12905 13.5132C3.97365 13.7285 3.71769 13.8856 3.41747 13.95C3.11726 14.0144 2.79738 13.9807 2.52822 13.8563C2.25905 13.732 2.06264 13.5273 1.9822 13.2871C1.90175 13.0469 1.94386 12.791 2.09926 12.5757L3.84291 10.1596C3.25506 9.73571 2.71019 9.27517 2.21342 8.78232C2.02114 8.58868 1.93229 8.34211 1.96621 8.0963C2.00014 7.85049 2.1541 7.62536 2.39456 7.46994C2.63502 7.31453 2.9425 7.24142 3.25003 7.26653C3.55756 7.29165 3.84023 7.41296 4.03647 7.60404C5.57221 9.12474 8.28696 10.9374 12.5 10.9374C16.7129 10.9374 19.4278 9.12474 20.9635 7.60412C21.0597 7.50721 21.179 7.42651 21.3144 7.36666C21.4498 7.30681 21.5987 7.269 21.7525 7.25542C21.9063 7.24184 22.0619 7.25275 22.2103 7.28752C22.3588 7.32229 22.4972 7.38023 22.6176 7.45801C22.7379 7.53579 22.8378 7.63186 22.9115 7.74068C22.9852 7.8495 23.0312 7.96892 23.0469 8.09204C23.0626 8.21516 23.0477 8.33956 23.003 8.45805C22.9583 8.57654 22.8848 8.68677 22.7866 8.7824C22.2887 9.27633 21.7426 9.73779 21.1533 10.1624L22.8861 12.5634Z" fill="black"/>
</svg>
