<svg width="23" height="21" viewBox="0 0 23 21" fill="none" xmlns="http://www.w3.org/2000/svg">
<path d="M19.4961 15.0117H17.9171C17.8093 15.0117 17.7082 15.0548 17.6408 15.1307C17.4836 15.305 17.3151 15.4732 17.1377 15.6331C16.4119 16.2964 15.5523 16.825 14.6063 17.1897C13.6263 17.5676 12.5729 17.7615 11.509 17.7598C10.4331 17.7598 9.3909 17.567 8.4116 17.1897C7.46561 16.825 6.60598 16.2964 5.88025 15.6331C5.15323 14.9721 4.57351 14.1886 4.17322 13.326C3.7577 12.4319 3.54881 11.4824 3.54881 10.5C3.54881 9.5177 3.75994 8.56819 4.17322 7.67405C4.57303 6.81067 5.14803 6.03343 5.88025 5.36692C6.61248 4.70042 7.46375 4.17542 8.4116 3.81038C9.3909 3.43304 10.4331 3.24026 11.509 3.24026C12.5848 3.24026 13.627 3.43099 14.6063 3.81038C15.5542 4.17542 16.4054 4.70042 17.1377 5.36692C17.3151 5.52894 17.4813 5.6971 17.6408 5.86937C17.7082 5.94524 17.8115 5.98831 17.9171 5.98831H19.4961C19.6376 5.98831 19.7252 5.84476 19.6466 5.73607C17.9238 3.29153 14.9095 1.67347 11.4843 1.68167C6.10262 1.69398 1.78787 5.68275 1.84178 10.5903C1.89568 15.4199 6.20369 19.3184 11.509 19.3184C14.9253 19.3184 17.9261 17.7024 19.6466 15.264C19.7229 15.1553 19.6376 15.0117 19.4961 15.0117ZM21.4929 10.3708L18.3056 8.07396C18.1866 7.98782 18.0137 8.06575 18.0137 8.20315V9.76175H10.9609C10.8621 9.76175 10.7812 9.83558 10.7812 9.92581V11.0742C10.7812 11.1645 10.8621 11.2383 10.9609 11.2383H18.0137V12.7969C18.0137 12.9343 18.1888 13.0122 18.3056 12.9261L21.4929 10.6292C21.5143 10.6139 21.5317 10.5943 21.5436 10.5719C21.5556 10.5495 21.5618 10.5249 21.5618 10.5C21.5618 10.4751 21.5556 10.4506 21.5436 10.4282C21.5317 10.4058 21.5143 10.3862 21.4929 10.3708V10.3708Z" fill="black"/>
</svg>
