<svg width="20" height="20" viewBox="0 0 20 20" fill="none" xmlns="http://www.w3.org/2000/svg">
<path d="M18.1713 8.36727H17.5V8.33268H10V11.666H14.7096C14.0225 13.6064 12.1763 14.9993 10 14.9993C7.23877 14.9993 5.00002 12.7606 5.00002 9.99935C5.00002 7.2381 7.23877 4.99935 10 4.99935C11.2746 4.99935 12.4342 5.48018 13.3171 6.2656L15.6742 3.90852C14.1859 2.52143 12.195 1.66602 10 1.66602C5.39794 1.66602 1.66669 5.39727 1.66669 9.99935C1.66669 14.6014 5.39794 18.3327 10 18.3327C14.6021 18.3327 18.3334 14.6014 18.3334 9.99935C18.3334 9.4406 18.2759 8.89518 18.1713 8.36727Z" fill="#FFC107"/>
<path d="M2.6275 6.1206L5.36542 8.12852C6.10625 6.29435 7.90042 4.99935 10 4.99935C11.2746 4.99935 12.4342 5.48018 13.3171 6.2656L15.6742 3.90852C14.1858 2.52143 12.195 1.66602 10 1.66602C6.79917 1.66602 4.02334 3.4731 2.6275 6.1206Z" fill="#FF3D00"/>
<path d="M9.99999 18.3336C12.1525 18.3336 14.1083 17.5099 15.5871 16.1703L13.0079 13.9878C12.1431 14.6454 11.0864 15.0011 9.99999 15.0003C7.83249 15.0003 5.99207 13.6182 5.29874 11.6895L2.58124 13.7832C3.9604 16.482 6.76124 18.3336 9.99999 18.3336Z" fill="#4CAF50"/>
<path d="M18.1712 8.36857H17.5V8.33398H10V11.6673H14.7096C14.3809 12.5908 13.7889 13.3978 13.0067 13.9886L13.0079 13.9877L15.5871 16.1702C15.4046 16.3361 18.3333 14.1673 18.3333 10.0007C18.3333 9.4419 18.2758 8.89648 18.1712 8.36857Z" fill="#1976D2"/>
</svg>
