<svg width="17" height="4" viewBox="0 0 17 4" fill="none" xmlns="http://www.w3.org/2000/svg">
<path d="M8.33333 3.5C8.88587 3.5 9.41577 3.31562 9.80647 2.98744C10.1972 2.65925 10.4167 2.21413 10.4167 1.75C10.4167 1.28587 10.1972 0.840752 9.80647 0.512563C9.41577 0.184375 8.88587 0 8.33333 0C7.7808 0 7.2509 0.184375 6.86019 0.512563C6.46949 0.840752 6.25 1.28587 6.25 1.75C6.25 2.21413 6.46949 2.65925 6.86019 2.98744C7.2509 3.31562 7.7808 3.5 8.33333 3.5ZM2.08333 3.5C2.63587 3.5 3.16577 3.31562 3.55647 2.98744C3.94717 2.65925 4.16667 2.21413 4.16667 1.75C4.16667 1.28587 3.94717 0.840752 3.55647 0.512563C3.16577 0.184375 2.63587 0 2.08333 0C1.5308 0 1.00089 0.184375 0.610194 0.512563C0.219493 0.840752 0 1.28587 0 1.75C0 2.21413 0.219493 2.65925 0.610194 2.98744C1.00089 3.31562 1.5308 3.5 2.08333 3.5ZM14.5833 3.5C15.1359 3.5 15.6658 3.31562 16.0565 2.98744C16.4472 2.65925 16.6667 2.21413 16.6667 1.75C16.6667 1.28587 16.4472 0.840752 16.0565 0.512563C15.6658 0.184375 15.1359 0 14.5833 0C14.0308 0 13.5009 0.184375 13.1102 0.512563C12.7195 0.840752 12.5 1.28587 12.5 1.75C12.5 2.21413 12.7195 2.65925 13.1102 2.98744C13.5009 3.31562 14.0308 3.5 14.5833 3.5Z" fill="black"/>
</svg>
