<svg width="23" height="21" viewBox="0 0 23 21" fill="none" xmlns="http://www.w3.org/2000/svg">
<path d="M11.5 1.75049C6.3049 1.75049 1.91669 5.75711 1.91669 10.5005C1.91669 13.2909 3.44235 15.8187 5.75002 17.434V17.5005H5.84777C7.44627 18.5899 9.40415 19.2505 11.5 19.2505C13.5959 19.2505 15.5538 18.5899 17.1523 17.5005H17.25V17.434C19.5577 15.8187 21.0834 13.2917 21.0834 10.5005C21.0834 5.75711 16.6951 1.75049 11.5 1.75049ZM7.7376 16.5616C7.87883 15.9783 8.23358 15.4564 8.74334 15.082C9.25311 14.7075 9.88743 14.5029 10.5417 14.5019H12.4584C13.1126 14.5031 13.7468 14.7077 14.2565 15.0822C14.7663 15.4566 15.1211 15.9784 15.2624 16.5616C14.1431 17.154 12.857 17.5005 11.5 17.5005C10.143 17.5005 8.85694 17.154 7.7376 16.5616ZM16.8763 15.4364C16.5107 14.6417 15.8966 13.9632 15.1108 13.4857C14.3249 13.0082 13.4023 12.7529 12.4584 12.7519H10.5417C9.59774 12.7529 8.67511 13.0082 7.88928 13.4857C7.10345 13.9632 6.48932 14.6417 6.12377 15.4364C4.7179 14.1597 3.83335 12.4045 3.83335 10.5005C3.83335 6.70561 7.34373 3.50049 11.5 3.50049C15.6563 3.50049 19.1667 6.70561 19.1667 10.5005C19.1667 12.4045 18.2821 14.1597 16.8763 15.4364Z" fill="black"/>
<path d="M11.5 5.25C9.31502 5.25 7.66669 6.755 7.66669 8.75C7.66669 10.745 9.31502 12.25 11.5 12.25C13.685 12.25 15.3334 10.745 15.3334 8.75C15.3334 6.755 13.685 5.25 11.5 5.25ZM11.5 10.5C10.3711 10.5 9.58335 9.78075 9.58335 8.75C9.58335 7.71925 10.3711 7 11.5 7C12.6289 7 13.4167 7.71925 13.4167 8.75C13.4167 9.78075 12.6289 10.5 11.5 10.5Z" fill="black"/>
</svg>
